<?xml version="1.0" encoding="utf-8"?>
<!-- Generator: Adobe Illustrator 15.1.0, SVG Export Plug-In . SVG Version: 6.00 Build 0)  -->
<!DOCTYPE svg PUBLIC "-//W3C//DTD SVG 1.1//EN" "http://www.w3.org/Graphics/SVG/1.1/DTD/svg11.dtd">
<svg version="1.1" id="Layer_1" xmlns="http://www.w3.org/2000/svg" xmlns:xlink="http://www.w3.org/1999/xlink" x="0px" y="0px"
	 width="148.946px" height="162.596px" viewBox="0 0 148.946 162.596" enable-background="new 0 0 148.946 162.596"
	 xml:space="preserve">
<g>
	<defs>
		<path id="SVGID_1_" d="M69.764,25.564l24.273-0.001c5.975-0.004,10.956,4.977,10.958,10.953l0.003,0.352
			c-0.002,5.972-4.981,10.953-10.959,10.953l-24.275,0.002V25.564z M94.033,0L47.847,0.004h-3.651l-0.003,3.652l0.006,44.17v0.9
			l0.003,2.754l49.838-0.007c7.992,0,14.608-6.616,14.606-14.609v-0.348c-0.003-7.989-6.617-14.61-14.61-14.609l-24.272,0.004
			h-3.656v3.654l0.001,22.258l-3.651,0.003L62.454,18.26l31.581-0.003c10.006-0.002,18.262,8.252,18.261,18.256l0.002,0.351
			c-0.001,10.005-8.249,18.259-18.254,18.261L44.2,55.132l0.003,3.651l49.836-0.006c12.025-0.001,21.913-9.893,21.909-21.915v-0.35
			c0.001-12.019-9.893-21.908-21.914-21.907l-31.582,0.006l-3.651,0.001L58.8,18.261l0.006,29.563l-3.652,0.001l-0.006-36.864
			l38.886-0.006c14.038-0.003,25.563,11.519,25.569,25.558v0.35c0.003,14.038-11.526,25.565-25.561,25.566l-49.839,0.005v3.651
			l49.841-0.003c16.056-0.004,29.211-13.169,29.208-29.22l0.001-0.35C123.251,20.459,110.091,7.299,94.036,7.3L55.148,7.306h-3.651
			v3.654l0.005,36.865l-3.65,0.001L47.846,3.654l46.188-0.006c18.071-0.003,32.871,14.796,32.873,32.865l-0.002,0.349
			c0.005,18.069-14.792,32.869-32.86,32.874l-49.841,0.006v2.129l-0.003,1.521l0.003,20.154l3.655-0.003L47.854,73.39l3.653-0.001
			l0.001,20.157l3.649-0.004L55.156,73.39h3.653l0.002,20.153h3.655l-0.004-20.155h3.648l0.008,20.154l3.651-0.002l-0.001-20.152
			l24.275-0.003c20.085-0.004,36.522-16.438,36.516-36.524l-0.003-0.351C130.557,16.427,114.121,0,94.038,0H94.033z"/>
	</defs>
	<clipPath id="SVGID_2_">
		<use xlink:href="#SVGID_1_"  overflow="visible"/>
	</clipPath>
	
		<linearGradient id="SVGID_3_" gradientUnits="userSpaceOnUse" x1="-4.882813e-004" y1="162.5962" x2="1" y2="162.5962" gradientTransform="matrix(86.3628 -0.0086 -0.0086 -86.3628 45.6181 14089.0371)">
		<stop  offset="0" style="stop-color:#E92167"/>
		<stop  offset="0.0054" style="stop-color:#E92167"/>
		<stop  offset="1" style="stop-color:#EC7124"/>
	</linearGradient>
	<polygon clip-path="url(#SVGID_2_)" fill="url(#SVGID_3_)" points="44.184,0 130.565,-0.008 130.574,93.546 44.193,93.555 	"/>
</g>
<g>
	<defs>
		<rect id="SVGID_4_" x="18.389" y="58.87" width="22.433" height="3.237"/>
	</defs>
	<clipPath id="SVGID_5_">
		<use xlink:href="#SVGID_4_"  overflow="visible"/>
	</clipPath>
	
		<linearGradient id="SVGID_6_" gradientUnits="userSpaceOnUse" x1="0" y1="162.5972" x2="1" y2="162.5972" gradientTransform="matrix(-22.4346 0.0022 -0.0022 -22.4346 41.1841 3708.2559)">
		<stop  offset="0" style="stop-color:#E92167"/>
		<stop  offset="0.0054" style="stop-color:#E92167"/>
		<stop  offset="1" style="stop-color:#EC7124"/>
	</linearGradient>
	<rect x="18.389" y="58.867" clip-path="url(#SVGID_5_)" fill="url(#SVGID_6_)" width="22.435" height="3.242"/>
</g>
<g>
	<defs>
		<rect id="SVGID_7_" x="18.387" y="51.523" width="22.433" height="3.237"/>
	</defs>
	<clipPath id="SVGID_8_">
		<use xlink:href="#SVGID_7_"  overflow="visible"/>
	</clipPath>
	
		<linearGradient id="SVGID_9_" gradientUnits="userSpaceOnUse" x1="0" y1="162.5962" x2="1" y2="162.5962" gradientTransform="matrix(-22.4336 0.0022 -0.0022 -22.4336 41.1908 3700.7524)">
		<stop  offset="0" style="stop-color:#E92167"/>
		<stop  offset="0.0054" style="stop-color:#E92167"/>
		<stop  offset="1" style="stop-color:#EC7124"/>
	</linearGradient>
	<rect x="18.387" y="51.521" clip-path="url(#SVGID_8_)" fill="url(#SVGID_9_)" width="22.433" height="3.242"/>
</g>
<g>
	<defs>
		<rect id="SVGID_10_" x="18.391" y="66.265" width="22.431" height="3.237"/>
	</defs>
	<clipPath id="SVGID_11_">
		<use xlink:href="#SVGID_10_"  overflow="visible"/>
	</clipPath>
	
		<linearGradient id="SVGID_12_" gradientUnits="userSpaceOnUse" x1="0" y1="162.5962" x2="1" y2="162.5962" gradientTransform="matrix(-22.4336 0.0022 -0.0022 -22.4336 41.1908 3715.5024)">
		<stop  offset="0" style="stop-color:#E92167"/>
		<stop  offset="0.0054" style="stop-color:#E92167"/>
		<stop  offset="1" style="stop-color:#EC7124"/>
	</linearGradient>
	<rect x="18.39" y="66.262" clip-path="url(#SVGID_11_)" fill="url(#SVGID_12_)" width="22.435" height="3.242"/>
</g>
<g>
	<defs>
		<rect id="SVGID_13_" width="148.946" height="162.596"/>
	</defs>
	<clipPath id="SVGID_14_">
		<use xlink:href="#SVGID_13_"  overflow="visible"/>
	</clipPath>
	<g clip-path="url(#SVGID_14_)">
		<path fill="#FFFFFF" d="M19.955,142.201H3.276v-26.978h16.679v3.728H7.003v7.775h10.486v3.728H7.003v8.02h12.952V142.201z"/>
		<path fill="#FFFFFF" d="M25.508,128.703c0,1.394,0.264,2.698,0.791,3.916c0.527,1.217,1.246,2.281,2.156,3.19
			c0.91,0.91,1.974,1.629,3.191,2.156c1.217,0.526,2.522,0.79,3.916,0.79c0.527,0,1.048-0.04,1.563-0.122
			c0.514-0.082,1.01-0.198,1.487-0.349l2.316,3.125c-0.829,0.352-1.691,0.618-2.589,0.801c-0.897,0.182-1.823,0.272-2.777,0.272
			c-1.908,0-3.696-0.36-5.365-1.082c-1.669-0.722-3.128-1.707-4.377-2.956c-1.249-1.249-2.234-2.708-2.956-4.377
			s-1.083-3.457-1.083-5.365c0-1.268,0.163-2.488,0.49-3.662c0.326-1.173,0.791-2.271,1.393-3.294
			c0.602-1.022,1.32-1.951,2.155-2.786c0.834-0.835,1.763-1.554,2.786-2.155c1.023-0.603,2.121-1.067,3.294-1.394
			c1.174-0.326,2.394-0.489,3.662-0.489s2.488,0.163,3.662,0.489s2.271,0.791,3.295,1.394c1.022,0.602,1.951,1.32,2.786,2.155
			c0.834,0.835,1.553,1.764,2.155,2.786c0.603,1.023,1.067,2.121,1.393,3.294c0.326,1.174,0.49,2.395,0.49,3.662
			c0,1.87-0.342,3.618-1.026,5.243c-0.685,1.625-1.628,3.065-2.833,4.32l7.173,9.677h-2.561c-0.728,0-1.371-0.142-1.93-0.424
			s-1.02-0.706-1.384-1.271l-6.438-8.698c0.791-0.426,1.509-0.947,2.156-1.563c0.646-0.614,1.198-1.305,1.657-2.07
			c0.458-0.766,0.815-1.588,1.073-2.466c0.257-0.879,0.386-1.795,0.386-2.749c0-1.394-0.264-2.698-0.791-3.916
			c-0.527-1.217-1.246-2.28-2.156-3.19c-0.91-0.91-1.974-1.629-3.191-2.156c-1.218-0.526-2.522-0.79-3.916-0.79
			c-1.393,0-2.698,0.264-3.916,0.79c-1.217,0.527-2.281,1.246-3.191,2.156c-0.91,0.91-1.628,1.974-2.156,3.19
			C25.772,126.004,25.508,127.309,25.508,128.703z"/>
		<path fill="#FFFFFF" d="M55.874,131.659c0,0.979,0.185,1.901,0.555,2.767c0.37,0.866,0.878,1.623,1.525,2.269
			c0.646,0.646,1.403,1.155,2.269,1.525c0.866,0.37,1.789,0.555,2.768,0.555s1.901-0.185,2.767-0.555
			c0.866-0.37,1.622-0.879,2.269-1.525c0.646-0.646,1.155-1.402,1.525-2.269c0.37-0.865,0.556-1.788,0.556-2.767v-16.436h3.728
			v16.436c0,1.004-0.129,1.967-0.386,2.89c-0.257,0.922-0.621,1.785-1.091,2.588c-0.47,0.804-1.038,1.534-1.702,2.193
			s-1.398,1.224-2.201,1.694c-0.803,0.471-1.665,0.835-2.586,1.092c-0.921,0.258-1.884,0.386-2.887,0.386
			c-0.991,0-1.947-0.128-2.869-0.386c-0.922-0.257-1.784-0.621-2.586-1.092c-0.802-0.471-1.536-1.035-2.201-1.694
			s-1.232-1.39-1.702-2.193c-0.47-0.803-0.834-1.669-1.091-2.598c-0.257-0.929-0.386-1.889-0.386-2.88v-16.436h3.728V131.659z"/>
		<path fill="#FFFFFF" d="M82.437,142.201h-3.728v-26.978h3.728V142.201z"/>
		<path fill="#FFFFFF" d="M91.98,142.201h-3.727v-26.978h9.639c1.167,0,2.265,0.224,3.294,0.669s1.927,1.051,2.692,1.816
			s1.371,1.663,1.816,2.692s0.669,2.127,0.669,3.294s-0.224,2.266-0.669,3.295s-1.051,1.927-1.816,2.691
			c-0.766,0.766-1.663,1.372-2.692,1.817s-2.127,0.668-3.294,0.668H91.98V142.201z M97.893,128.439c0.652,0,1.268-0.122,1.845-0.367
			c0.577-0.244,1.082-0.583,1.516-1.017c0.433-0.433,0.771-0.935,1.017-1.506c0.244-0.571,0.367-1.189,0.367-1.854
			c0-0.652-0.123-1.268-0.367-1.845c-0.245-0.577-0.584-1.083-1.017-1.516c-0.434-0.433-0.938-0.771-1.516-1.017
			c-0.577-0.244-1.192-0.367-1.845-0.367H91.98v9.488H97.893z"/>
		<path fill="#FFFFFF" d="M113.31,142.201h-3.727v-26.978h9.639c1.167,0,2.265,0.224,3.294,0.669s1.927,1.051,2.692,1.816
			s1.371,1.663,1.816,2.692s0.669,2.127,0.669,3.294s-0.224,2.266-0.669,3.295s-1.051,1.927-1.816,2.691
			c-0.766,0.766-1.663,1.372-2.692,1.817s-2.127,0.668-3.294,0.668h-5.912V142.201z M119.222,128.439
			c0.652,0,1.268-0.122,1.845-0.367c0.577-0.244,1.082-0.583,1.516-1.017c0.433-0.433,0.771-0.935,1.017-1.506
			c0.244-0.571,0.367-1.189,0.367-1.854c0-0.652-0.123-1.268-0.367-1.845c-0.245-0.577-0.584-1.083-1.017-1.516
			c-0.434-0.433-0.938-0.771-1.516-1.017c-0.577-0.244-1.192-0.367-1.845-0.367h-5.912v9.488H119.222z"/>
		<path fill="#FFFFFF" d="M134.639,142.201h-3.727v-26.978h9.639c1.167,0,2.265,0.224,3.294,0.669s1.927,1.051,2.692,1.816
			s1.371,1.663,1.816,2.692s0.669,2.127,0.669,3.294s-0.224,2.266-0.669,3.295s-1.051,1.927-1.816,2.691
			c-0.766,0.766-1.663,1.372-2.692,1.817s-2.127,0.668-3.294,0.668h-5.912V142.201z M140.551,128.439
			c0.652,0,1.268-0.122,1.845-0.367c0.577-0.244,1.082-0.583,1.516-1.017c0.433-0.433,0.771-0.935,1.017-1.506
			c0.244-0.571,0.367-1.189,0.367-1.854c0-0.652-0.123-1.268-0.367-1.845c-0.245-0.577-0.584-1.083-1.017-1.516
			c-0.434-0.433-0.938-0.771-1.516-1.017c-0.577-0.244-1.192-0.367-1.845-0.367h-5.912v9.488H140.551z"/>
	</g>
	<g clip-path="url(#SVGID_14_)">
		<path fill="#FFFFFF" d="M3.179,154.882h1.915c1.074,0,1.611,0.46,1.611,1.38c0,0.691-0.258,1.133-0.774,1.324
			c0.659,0.181,0.989,0.628,0.989,1.341c0,0.574-0.143,0.974-0.427,1.2c-0.285,0.226-0.701,0.339-1.249,0.339H3.179V154.882z
			 M5.093,155.154H3.466v2.321h1.715c0.431,0,0.743-0.099,0.938-0.295c0.194-0.197,0.291-0.495,0.291-0.894
			c0-0.399-0.106-0.688-0.319-0.865C5.877,155.243,5.545,155.154,5.093,155.154z M5.181,157.747H3.466v2.448h1.779
			c0.441,0,0.782-0.094,1.021-0.283c0.239-0.188,0.359-0.517,0.359-0.984C6.625,158.14,6.143,157.747,5.181,157.747z"/>
		<path fill="#FFFFFF" d="M11.187,158.153v2.313H10.9v-5.584h2.002c0.564,0,0.981,0.128,1.252,0.383
			c0.271,0.256,0.407,0.66,0.407,1.213c0,0.941-0.385,1.486-1.156,1.635l1.26,2.354h-0.327l-1.245-2.313H11.187z M14.258,156.478
			c0-0.463-0.109-0.799-0.327-1.009c-0.218-0.21-0.561-0.315-1.029-0.315h-1.715v2.729h1.715
			C13.806,157.882,14.258,157.414,14.258,156.478z"/>
		<path fill="#FFFFFF" d="M18.574,160.466v-5.584h0.287v5.584H18.574z"/>
		<path fill="#FFFFFF" d="M25.186,160.466h-2.074v-5.584h2.074c0.34,0,0.634,0.075,0.882,0.224c0.247,0.149,0.441,0.354,0.582,0.618
			s0.243,0.551,0.307,0.861c0.064,0.312,0.096,0.653,0.096,1.025s-0.033,0.721-0.1,1.045s-0.169,0.626-0.307,0.905
			s-0.333,0.5-0.583,0.662S25.521,160.466,25.186,160.466z M26.418,159.345c0.114-0.258,0.198-0.531,0.251-0.821
			s0.08-0.623,0.08-1.001s-0.044-0.74-0.131-1.089c-0.088-0.349-0.254-0.648-0.499-0.901s-0.556-0.379-0.934-0.379h-1.787v5.041
			h1.787c0.287,0,0.536-0.077,0.746-0.231C26.142,159.81,26.304,159.604,26.418,159.345z"/>
		<path fill="#FFFFFF" d="M33.218,157.969v-0.271h1.484v2.64c-0.686,0.133-1.271,0.2-1.755,0.2c-0.782,0-1.326-0.237-1.631-0.71
			c-0.306-0.474-0.458-1.184-0.458-2.13c0-0.463,0.03-0.86,0.092-1.192c0.061-0.333,0.166-0.632,0.315-0.897
			c0.298-0.532,0.859-0.798,1.683-0.798c0.473,0,0.976,0.051,1.508,0.151l0.247,0.048l-0.024,0.279
			c-0.67-0.139-1.218-0.207-1.643-0.207c-0.426,0-0.758,0.058-0.997,0.175s-0.422,0.298-0.546,0.543
			c-0.125,0.244-0.211,0.514-0.259,0.81c-0.048,0.295-0.072,0.656-0.072,1.085c0,0.428,0.025,0.789,0.076,1.084
			c0.05,0.296,0.14,0.561,0.267,0.794c0.25,0.463,0.731,0.694,1.444,0.694c0.394,0,0.883-0.054,1.468-0.16v-2.138H33.218z"/>
		<path fill="#FFFFFF" d="M38.794,160.466v-5.584h0.287v5.584H38.794z"/>
		<path fill="#FFFFFF" d="M43.333,160.466v-5.584h0.678l2.656,5.313h0.215v-5.313h0.287v5.584h-0.678l-2.664-5.313H43.62v5.313
			H43.333z"/>
		<path fill="#FFFFFF" d="M53.567,157.969v-0.271h1.484v2.64c-0.686,0.133-1.271,0.2-1.755,0.2c-0.782,0-1.326-0.237-1.631-0.71
			c-0.306-0.474-0.458-1.184-0.458-2.13c0-0.463,0.03-0.86,0.092-1.192c0.061-0.333,0.166-0.632,0.315-0.897
			c0.298-0.532,0.859-0.798,1.683-0.798c0.473,0,0.976,0.051,1.508,0.151l0.247,0.048l-0.024,0.279
			c-0.67-0.139-1.218-0.207-1.643-0.207c-0.426,0-0.758,0.058-0.997,0.175s-0.422,0.298-0.546,0.543
			c-0.125,0.244-0.211,0.514-0.259,0.81c-0.048,0.295-0.072,0.656-0.072,1.085c0,0.428,0.025,0.789,0.076,1.084
			c0.05,0.296,0.14,0.561,0.267,0.794c0.25,0.463,0.731,0.694,1.444,0.694c0.394,0,0.883-0.054,1.468-0.16v-2.138H53.567z"/>
		<path fill="#FFFFFF" d="M65.715,158.417h-1.747v2.05h-0.287v-5.584h2.034c0.574,0,0.993,0.14,1.256,0.419s0.395,0.711,0.395,1.296
			C67.366,157.81,66.816,158.417,65.715,158.417z M63.968,158.145h1.747c0.898,0,1.348-0.516,1.348-1.548
			c0-0.488-0.106-0.852-0.319-1.088c-0.213-0.237-0.556-0.355-1.029-0.355h-1.747V158.145z"/>
		<path fill="#FFFFFF" d="M71.418,159.812c-0.16-0.255-0.27-0.549-0.331-0.881c-0.062-0.333-0.092-0.743-0.092-1.232
			c0-0.979,0.154-1.705,0.462-2.178c0.309-0.474,0.867-0.71,1.675-0.71c0.808,0,1.367,0.235,1.675,0.706s0.463,1.205,0.463,2.205
			s-0.15,1.719-0.451,2.158c-0.301,0.438-0.868,0.658-1.703,0.658S71.716,160.296,71.418,159.812z M71.638,159.601
			c0.13,0.231,0.318,0.4,0.563,0.506c0.244,0.106,0.557,0.16,0.937,0.16s0.691-0.049,0.933-0.147
			c0.242-0.099,0.429-0.261,0.559-0.487c0.13-0.226,0.22-0.487,0.268-0.785s0.071-0.681,0.071-1.148
			c0-0.894-0.129-1.553-0.387-1.979s-0.741-0.638-1.448-0.638c-0.739,0-1.236,0.23-1.492,0.693
			c-0.127,0.234-0.217,0.501-0.267,0.802c-0.051,0.301-0.076,0.676-0.076,1.125s0.024,0.82,0.072,1.112
			C71.418,159.108,71.507,159.37,71.638,159.601z"/>
		<path fill="#FFFFFF" d="M80.743,155.066c-0.947,0-1.42,0.372-1.42,1.117c0,0.335,0.056,0.577,0.167,0.726
			c0.064,0.08,0.131,0.147,0.2,0.203c0.068,0.056,0.17,0.105,0.303,0.147c0.218,0.064,0.494,0.123,0.829,0.176
			c0.58,0.091,0.996,0.23,1.249,0.419c0.252,0.188,0.379,0.52,0.379,0.993c0,0.601-0.14,1.03-0.419,1.288s-0.703,0.387-1.272,0.387
			c-0.351,0-0.821-0.031-1.412-0.096l-0.295-0.032l0.032-0.278c0.733,0.09,1.313,0.135,1.738,0.135c0.883,0,1.324-0.459,1.324-1.38
			c0-0.388-0.101-0.656-0.303-0.806c-0.202-0.148-0.515-0.255-0.938-0.318c-0.423-0.064-0.723-0.121-0.901-0.172
			c-0.178-0.051-0.351-0.129-0.519-0.235c-0.167-0.106-0.287-0.251-0.358-0.435c-0.072-0.184-0.108-0.419-0.108-0.706
			c0-0.936,0.575-1.404,1.724-1.404c0.366,0,0.808,0.032,1.324,0.096l0.263,0.032l-0.031,0.279
			C81.569,155.111,81.051,155.066,80.743,155.066z"/>
		<path fill="#FFFFFF" d="M87.826,155.066c-0.947,0-1.42,0.372-1.42,1.117c0,0.335,0.056,0.577,0.167,0.726
			c0.064,0.08,0.131,0.147,0.2,0.203c0.068,0.056,0.17,0.105,0.303,0.147c0.218,0.064,0.494,0.123,0.829,0.176
			c0.58,0.091,0.996,0.23,1.249,0.419c0.252,0.188,0.379,0.52,0.379,0.993c0,0.601-0.14,1.03-0.419,1.288s-0.703,0.387-1.272,0.387
			c-0.351,0-0.821-0.031-1.412-0.096l-0.295-0.032l0.032-0.278c0.733,0.09,1.313,0.135,1.738,0.135c0.883,0,1.324-0.459,1.324-1.38
			c0-0.388-0.101-0.656-0.303-0.806c-0.202-0.148-0.515-0.255-0.938-0.318c-0.423-0.064-0.723-0.121-0.901-0.172
			c-0.178-0.051-0.351-0.129-0.519-0.235c-0.167-0.106-0.287-0.251-0.358-0.435c-0.072-0.184-0.108-0.419-0.108-0.706
			c0-0.936,0.575-1.404,1.724-1.404c0.366,0,0.808,0.032,1.324,0.096l0.263,0.032l-0.031,0.279
			C88.652,155.111,88.134,155.066,87.826,155.066z"/>
		<path fill="#FFFFFF" d="M93.474,160.466v-5.584h0.288v5.584H93.474z"/>
		<path fill="#FFFFFF" d="M98.012,154.882h1.915c1.074,0,1.611,0.46,1.611,1.38c0,0.691-0.258,1.133-0.774,1.324
			c0.66,0.181,0.989,0.628,0.989,1.341c0,0.574-0.142,0.974-0.427,1.2c-0.284,0.226-0.7,0.339-1.248,0.339h-2.066V154.882z
			 M99.927,155.154H98.3v2.321h1.715c0.431,0,0.743-0.099,0.937-0.295c0.194-0.197,0.292-0.495,0.292-0.894
			c0-0.399-0.106-0.688-0.319-0.865C100.711,155.243,100.379,155.154,99.927,155.154z M100.015,157.747H98.3v2.448h1.778
			c0.441,0,0.781-0.094,1.021-0.283c0.239-0.188,0.358-0.517,0.358-0.984C101.458,158.14,100.977,157.747,100.015,157.747z"/>
		<path fill="#FFFFFF" d="M105.741,160.466v-5.584h0.288v5.584H105.741z"/>
		<path fill="#FFFFFF" d="M113.288,160.466h-3.008v-5.584h0.288v5.313h2.72V160.466z"/>
		<path fill="#FFFFFF" d="M116.916,160.466v-5.584h0.288v5.584H116.916z"/>
		<path fill="#FFFFFF" d="M120.825,155.154v-0.271h3.988v0.271h-1.843v5.313h-0.287v-5.313H120.825z"/>
		<path fill="#FFFFFF" d="M128.435,160.466v-5.584h0.288v5.584H128.435z"/>
		<path fill="#FFFFFF" d="M132.973,160.466v-5.584h3.263v0.271h-2.975v2.321h2.496v0.271h-2.496v2.448h2.975v0.271H132.973z"/>
		<path fill="#FFFFFF" d="M141.549,155.066c-0.947,0-1.42,0.372-1.42,1.117c0,0.335,0.056,0.577,0.167,0.726
			c0.064,0.08,0.131,0.147,0.2,0.203c0.068,0.056,0.17,0.105,0.303,0.147c0.218,0.064,0.494,0.123,0.829,0.176
			c0.58,0.091,0.996,0.23,1.249,0.419c0.252,0.188,0.379,0.52,0.379,0.993c0,0.601-0.14,1.03-0.419,1.288s-0.703,0.387-1.272,0.387
			c-0.351,0-0.821-0.031-1.412-0.096l-0.295-0.032l0.032-0.278c0.733,0.09,1.313,0.135,1.738,0.135c0.883,0,1.324-0.459,1.324-1.38
			c0-0.388-0.101-0.656-0.303-0.806c-0.202-0.148-0.515-0.255-0.938-0.318c-0.423-0.064-0.723-0.121-0.901-0.172
			c-0.178-0.051-0.351-0.129-0.519-0.235c-0.167-0.106-0.287-0.251-0.358-0.435c-0.072-0.184-0.108-0.419-0.108-0.706
			c0-0.936,0.575-1.404,1.724-1.404c0.366,0,0.808,0.032,1.324,0.096l0.263,0.032l-0.031,0.279
			C142.375,155.111,141.856,155.066,141.549,155.066z"/>
	</g>
</g>
</svg>
